<svg width="27" height="27" viewBox="0 0 27 27" fill="none" xmlns="http://www.w3.org/2000/svg">
<path d="M12 20H14.6667V14.6667H20V12H14.6667V6.66667H12V12H6.66667V14.6667H12V20ZM13.3333 26.6667C11.4889 26.6667 9.75556 26.3164 8.13333 25.616C6.51111 24.9164 5.1 23.9667 3.9 22.7667C2.7 21.5667 1.75022 20.1556 1.05067 18.5333C0.350222 16.9111 0 15.1778 0 13.3333C0 11.4889 0.350222 9.75556 1.05067 8.13333C1.75022 6.51111 2.7 5.1 3.9 3.9C5.1 2.7 6.51111 1.74978 8.13333 1.04933C9.75556 0.349778 11.4889 0 13.3333 0C15.1778 0 16.9111 0.349778 18.5333 1.04933C20.1556 1.74978 21.5667 2.7 22.7667 3.9C23.9667 5.1 24.9164 6.51111 25.616 8.13333C26.3164 9.75556 26.6667 11.4889 26.6667 13.3333C26.6667 15.1778 26.3164 16.9111 25.616 18.5333C24.9164 20.1556 23.9667 21.5667 22.7667 22.7667C21.5667 23.9667 20.1556 24.9164 18.5333 25.616C16.9111 26.3164 15.1778 26.6667 13.3333 26.6667ZM13.3333 24C16.3111 24 18.8333 22.9667 20.9 20.9C22.9667 18.8333 24 16.3111 24 13.3333C24 10.3556 22.9667 7.83333 20.9 5.76667C18.8333 3.7 16.3111 2.66667 13.3333 2.66667C10.3556 2.66667 7.83333 3.7 5.76667 5.76667C3.7 7.83333 2.66667 10.3556 2.66667 13.3333C2.66667 16.3111 3.7 18.8333 5.76667 20.9C7.83333 22.9667 10.3556 24 13.3333 24Z" fill="#5C64CF"/>
</svg>
